# xmcd
#
# Track frame offsets: 
#        150
#        9900
#        23758
#        28190
#        50585
#        67050
#        75890
#        96260
#        113550
#        121676
#        138721
#        149332
#        156362
#        179206
#        189780
#        204895
#
# Disc length: 2859 seconds
#
# Revision: 0
# Processed by: cddbd v1.5.2PL0 Copyright (c) Steve Scherf et al.
# Submitted via: ExactAudioCopy v1.1
#
DISCID=d30b2910
DTITLE=Koerner, Ray and Glover - Lots More Blues, Rags And Hollers
DYEAR=1964
DGENRE=Blues
TTITLE0=Black Dog (stereo)
TTITLE1=Whomp Bom (stereo)
TTITLE2=Black Betty (stereo)
TTITLE3=Honey Bee (stereo)
TTITLE4=Crazy Fool (stereo)
TTITLE5=Keep Your Hands Off (stereo)
TTITLE6=Duncan and Brady (stereo)
TTITLE7=Fine Soft Land (stereo)
TTITLE8=Red Cross Store (stereo)
TTITLE9=Lady Day (stereo)
TTITLE10=Freeze To Me, Mama (stereo)
TTITLE11=Ted Mack Rag (1964) (stereo)
TTITLE12=Fannin Street (stereo)
TTITLE13=Love Bug (stereo)
TTITLE14=Can't Get My Rest At Night (stereo)
TTITLE15=What's The Matter With The Mill (stereo)
EXTD=
EXTT0=
EXTT1=
EXTT2=
EXTT3=
EXTT4=
EXTT5=
EXTT6=
EXTT7=
EXTT8=
EXTT9=
EXTT10=
EXTT11=
EXTT12=
EXTT13=
EXTT14=
EXTT15=
PLAYORDER=
